{
	"patcher" : 	{
		"fileversion" : 1,
		"appversion" : 		{
			"major" : 8,
			"minor" : 0,
			"revision" : 4,
			"architecture" : "x64",
			"modernui" : 1
		}
,
		"classnamespace" : "box",
		"rect" : [ -728.0, 21.0, 694.0, 937.0 ],
		"bglocked" : 0,
		"openinpresentation" : 1,
		"default_fontsize" : 12.0,
		"default_fontface" : 0,
		"default_fontname" : "Arial",
		"gridonopen" : 1,
		"gridsize" : [ 15.0, 15.0 ],
		"gridsnaponopen" : 1,
		"objectsnaponopen" : 1,
		"statusbarvisible" : 2,
		"toolbarvisible" : 1,
		"lefttoolbarpinned" : 0,
		"toptoolbarpinned" : 0,
		"righttoolbarpinned" : 0,
		"bottomtoolbarpinned" : 0,
		"toolbars_unpinned_last_save" : 0,
		"tallnewobj" : 0,
		"boxanimatetime" : 200,
		"enablehscroll" : 1,
		"enablevscroll" : 1,
		"devicewidth" : 0.0,
		"description" : "",
		"digest" : "",
		"tags" : "",
		"style" : "",
		"subpatcher_template" : "",
		"boxes" : [ 			{
				"box" : 				{
					"id" : "obj-50",
					"maxclass" : "message",
					"numinlets" : 2,
					"numoutlets" : 1,
					"outlettype" : [ "" ],
					"patching_rect" : [ 97.75, 873.0, 50.0, 22.0 ]
				}

			}
, 			{
				"box" : 				{
					"id" : "obj-43",
					"maxclass" : "message",
					"numinlets" : 2,
					"numoutlets" : 1,
					"outlettype" : [ "" ],
					"patching_rect" : [ 152.511587560176849, 784.0, 50.0, 22.0 ]
				}

			}
, 			{
				"box" : 				{
					"id" : "obj-38",
					"maxclass" : "message",
					"numinlets" : 2,
					"numoutlets" : 1,
					"outlettype" : [ "" ],
					"patching_rect" : [ 98.0, 784.0, 29.5, 22.0 ],
					"text" : "set"
				}

			}
, 			{
				"box" : 				{
					"id" : "obj-23",
					"items" : [ 10, "sec", "has", "passed", ",", 30, "sec", "has", "passed", ",", 180, "sec", "has", "passed", ",", 360, "sec", "has", "passed", ",", 720, "sec", "has", "passed" ],
					"maxclass" : "umenu",
					"numinlets" : 1,
					"numoutlets" : 3,
					"outlettype" : [ "int", "", "" ],
					"parameter_enable" : 0,
					"patching_rect" : [ 373.75, 171.0, 139.0, 22.0 ]
				}

			}
, 			{
				"box" : 				{
					"id" : "obj-16",
					"maxclass" : "newobj",
					"numinlets" : 1,
					"numoutlets" : 1,
					"outlettype" : [ "" ],
					"patching_rect" : [ 652.0, 363.0, 107.0, 22.0 ],
					"text" : "prepend bgfillcolor"
				}

			}
, 			{
				"box" : 				{
					"id" : "obj-15",
					"maxclass" : "comment",
					"numinlets" : 1,
					"numoutlets" : 0,
					"patching_rect" : [ 783.232535600662231, 373.0, 40.0, 20.0 ],
					"text" : "panel"
				}

			}
, 			{
				"box" : 				{
					"bgcolor" : [ 0.807843137254902, 0.811764705882353, 0.070588235294118, 0.52 ],
					"id" : "obj-2",
					"linecount" : 5,
					"maxclass" : "comment",
					"numinlets" : 1,
					"numoutlets" : 0,
					"patching_rect" : [ 102.511587560176849, 323.0, 190.0, 74.0 ],
					"text" : "If you set 'open presentation mode' in inspector, then device will be opened with presentation mode when you restart the project.",
					"textcolor" : [ 0.364705882352941, 0.156862745098039, 0.156862745098039, 1.0 ]
				}

			}
, 			{
				"box" : 				{
					"id" : "obj-9",
					"maxclass" : "newobj",
					"numinlets" : 1,
					"numoutlets" : 1,
					"outlettype" : [ "bang" ],
					"patching_rect" : [ 242.5, 33.090921521186829, 58.0, 22.0 ],
					"text" : "loadbang"
				}

			}
, 			{
				"box" : 				{
					"bgcolor" : [ 0.807843137254902, 0.811764705882353, 0.070588235294118, 0.52 ],
					"id" : "obj-7",
					"linecount" : 5,
					"maxclass" : "comment",
					"numinlets" : 1,
					"numoutlets" : 0,
					"patching_rect" : [ 324.5, 25.090921521186829, 124.117645978927612, 74.0 ],
					"text" : "Message can preserve the value last fired (and object and number cannot do that). ",
					"textcolor" : [ 0.364705882352941, 0.156862745098039, 0.156862745098039, 1.0 ]
				}

			}
, 			{
				"box" : 				{
					"id" : "obj-5",
					"maxclass" : "message",
					"numinlets" : 2,
					"numoutlets" : 1,
					"outlettype" : [ "" ],
					"patching_rect" : [ 293.0, 74.090921521186829, 29.5, 22.0 ],
					"text" : "1"
				}

			}
, 			{
				"box" : 				{
					"bgcolor" : [ 1.0, 1.0, 1.0, 0.0 ],
					"fontname" : "Helvetica Neue",
					"id" : "obj-77",
					"maxclass" : "comment",
					"numinlets" : 1,
					"numoutlets" : 0,
					"patching_rect" : [ 98.0, 407.0, 109.0, 20.0 ],
					"presentation" : 1,
					"presentation_rect" : [ 51.0, 34.0, 64.0, 20.0 ],
					"text" : "TIMER"
				}

			}
, 			{
				"box" : 				{
					"id" : "obj-59",
					"maxclass" : "message",
					"numinlets" : 2,
					"numoutlets" : 1,
					"outlettype" : [ "" ],
					"patching_rect" : [ 98.0, 435.0, 49.0, 22.0 ],
					"presentation" : 1,
					"presentation_rect" : [ 112.25, 95.0, 49.0, 22.0 ],
					"text" : "RESET"
				}

			}
, 			{
				"box" : 				{
					"id" : "obj-54",
					"maxclass" : "message",
					"numinlets" : 2,
					"numoutlets" : 1,
					"outlettype" : [ "" ],
					"patching_rect" : [ 162.761587560176849, 435.0, 47.0, 22.0 ],
					"presentation" : 1,
					"presentation_rect" : [ 51.0, 95.0, 47.0, 22.0 ],
					"text" : "START"
				}

			}
, 			{
				"box" : 				{
					"id" : "obj-48",
					"maxclass" : "message",
					"numinlets" : 2,
					"numoutlets" : 1,
					"outlettype" : [ "" ],
					"patching_rect" : [ 162.761587560176849, 486.0, 29.5, 22.0 ],
					"text" : "1"
				}

			}
, 			{
				"box" : 				{
					"id" : "obj-46",
					"maxclass" : "message",
					"numinlets" : 2,
					"numoutlets" : 1,
					"outlettype" : [ "" ],
					"patching_rect" : [ 343.5, 784.0, 29.5, 22.0 ],
					"text" : "0"
				}

			}
, 			{
				"box" : 				{
					"id" : "obj-41",
					"maxclass" : "message",
					"numinlets" : 2,
					"numoutlets" : 1,
					"outlettype" : [ "" ],
					"patching_rect" : [ 308.0, 784.0, 29.5, 22.0 ],
					"text" : "1"
				}

			}
, 			{
				"box" : 				{
					"id" : "obj-39",
					"maxclass" : "comment",
					"numinlets" : 1,
					"numoutlets" : 0,
					"patching_rect" : [ 268.0, 826.0, 32.5, 20.0 ],
					"text" : "led"
				}

			}
, 			{
				"box" : 				{
					"bgcolor" : [ 0.807843137254902, 0.811764705882353, 0.070588235294118, 0.52 ],
					"id" : "obj-32",
					"linecount" : 7,
					"maxclass" : "comment",
					"numinlets" : 1,
					"numoutlets" : 0,
					"patching_rect" : [ 102.511587560176849, 219.090921521186829, 190.0, 100.0 ],
					"text" : "You can select 'Inculde in Presentation' if you want to show the object in Presentation mode.\nPresentation mode and Unlocked mode are mutually exclusive, and hence you can create presentation board separately.",
					"textcolor" : [ 0.364705882352941, 0.156862745098039, 0.156862745098039, 1.0 ]
				}

			}
, 			{
				"box" : 				{
					"bgcolor" : [ 0.807843137254902, 0.811764705882353, 0.070588235294118, 0.52 ],
					"id" : "obj-19",
					"linecount" : 7,
					"maxclass" : "comment",
					"numinlets" : 1,
					"numoutlets" : 0,
					"patching_rect" : [ 974.953455686569214, 727.0, 228.346092104911804, 100.0 ],
					"text" : "Changing Patch color\n*You can change this via general setting of Inspector.\n1. click on anywhere\n2. click on inspector icon\n3. click on P mark (Patcher inspector)\n4. you will find all general settings.",
					"textcolor" : [ 0.364705882352941, 0.156862745098039, 0.156862745098039, 1.0 ]
				}

			}
, 			{
				"box" : 				{
					"id" : "obj-14",
					"maxclass" : "newobj",
					"numinlets" : 4,
					"numoutlets" : 0,
					"patching_rect" : [ 842.019127011299133, 777.242424309253693, 50.5, 22.0 ],
					"text" : "bgcolor"
				}

			}
, 			{
				"box" : 				{
					"id" : "obj-3",
					"maxclass" : "swatch",
					"numinlets" : 3,
					"numoutlets" : 2,
					"outlettype" : [ "", "float" ],
					"parameter_enable" : 0,
					"patching_rect" : [ 842.019127011299133, 727.0, 128.0, 32.0 ],
					"saturation" : 1.0
				}

			}
, 			{
				"box" : 				{
					"bgcolor" : [ 0.807843137254902, 0.811764705882353, 0.070588235294118, 0.52 ],
					"id" : "obj-75",
					"linecount" : 3,
					"maxclass" : "comment",
					"numinlets" : 1,
					"numoutlets" : 0,
					"patching_rect" : [ 477.882354021072388, 91.090921521186829, 124.117645978927612, 47.0 ],
					"text" : "Open Inspector and edit 'Menu Items' to store values",
					"textcolor" : [ 0.364705882352941, 0.156862745098039, 0.156862745098039, 1.0 ]
				}

			}
, 			{
				"box" : 				{
					"bgcolor" : [ 0.807843137254902, 0.811764705882353, 0.070588235294118, 0.52 ],
					"id" : "obj-71",
					"linecount" : 3,
					"maxclass" : "comment",
					"numinlets" : 1,
					"numoutlets" : 0,
					"patching_rect" : [ 893.195599734783173, 518.209277749061584, 157.346092104911804, 47.0 ],
					"text" : "The attributes of connected object(s) will be set as options of attrui",
					"textcolor" : [ 0.364705882352941, 0.156862745098039, 0.156862745098039, 1.0 ]
				}

			}
, 			{
				"box" : 				{
					"bgcolor" : [ 0.807843137254902, 0.811764705882353, 0.070588235294118, 0.52 ],
					"id" : "obj-69",
					"linecount" : 2,
					"maxclass" : "comment",
					"numinlets" : 1,
					"numoutlets" : 0,
					"patching_rect" : [ 776.019127011299133, 287.090921521186829, 124.117645978927612, 33.0 ],
					"text" : "Choose any color to send the RGBA value",
					"textcolor" : [ 0.364705882352941, 0.156862745098039, 0.156862745098039, 1.0 ]
				}

			}
, 			{
				"box" : 				{
					"bgcolor" : [ 0.807843137254902, 0.811764705882353, 0.070588235294118, 0.52 ],
					"id" : "obj-62",
					"linecount" : 2,
					"maxclass" : "comment",
					"numinlets" : 1,
					"numoutlets" : 0,
					"patching_rect" : [ 751.313243627548218, 206.923076152801514, 124.117645978927612, 33.0 ],
					"text" : "Click with Shift to store the value first",
					"textcolor" : [ 0.364705882352941, 0.156862745098039, 0.156862745098039, 1.0 ]
				}

			}
, 			{
				"box" : 				{
					"id" : "obj-60",
					"maxclass" : "comment",
					"numinlets" : 1,
					"numoutlets" : 0,
					"patching_rect" : [ 187.373455405235291, 580.0, 45.246241092681885, 20.0 ],
					"text" : "object"
				}

			}
, 			{
				"box" : 				{
					"id" : "obj-58",
					"maxclass" : "comment",
					"numinlets" : 1,
					"numoutlets" : 0,
					"patching_rect" : [ 179.090288758277893, 706.0, 53.529407739639282, 20.0 ],
					"text" : "number"
				}

			}
, 			{
				"box" : 				{
					"bgcolor" : [ 0.807843137254902, 0.811764705882353, 0.070588235294118, 0.52 ],
					"id" : "obj-55",
					"linecount" : 2,
					"maxclass" : "comment",
					"numinlets" : 1,
					"numoutlets" : 0,
					"patching_rect" : [ 102.511587560176849, 182.0, 124.117645978927612, 33.0 ],
					"text" : "Click on 'x' to show hint modal",
					"textcolor" : [ 0.364705882352941, 0.156862745098039, 0.156862745098039, 1.0 ]
				}

			}
, 			{
				"box" : 				{
					"id" : "obj-49",
					"maxclass" : "comment",
					"numinlets" : 1,
					"numoutlets" : 0,
					"patching_rect" : [ 187.373455405235291, 618.242424309253693, 45.246241092681885, 20.0 ],
					"text" : "button"
				}

			}
, 			{
				"box" : 				{
					"id" : "obj-47",
					"maxclass" : "comment",
					"numinlets" : 1,
					"numoutlets" : 0,
					"patching_rect" : [ 187.373455405235291, 539.060603320598602, 45.246241092681885, 20.0 ],
					"text" : "toggle"
				}

			}
, 			{
				"box" : 				{
					"id" : "obj-44",
					"maxclass" : "comment",
					"numinlets" : 1,
					"numoutlets" : 0,
					"patching_rect" : [ 804.372066617012024, 545.209277749061584, 41.860468983650208, 20.0 ],
					"text" : "attrui"
				}

			}
, 			{
				"box" : 				{
					"id" : "obj-42",
					"maxclass" : "number",
					"numinlets" : 1,
					"numoutlets" : 2,
					"outlettype" : [ "", "bang" ],
					"parameter_enable" : 0,
					"patching_rect" : [ 979.953455686569214, 614.959044575691223, 50.0, 22.0 ]
				}

			}
, 			{
				"box" : 				{
					"attr" : "patching_rect",
					"id" : "obj-37",
					"maxclass" : "attrui",
					"numinlets" : 1,
					"numoutlets" : 1,
					"outlettype" : [ "" ],
					"patching_rect" : [ 979.953455686569214, 571.0, 150.0, 22.0 ]
				}

			}
, 			{
				"box" : 				{
					"attr" : "style",
					"id" : "obj-34",
					"maxclass" : "attrui",
					"numinlets" : 1,
					"numoutlets" : 1,
					"outlettype" : [ "" ],
					"patching_rect" : [ 804.372066617012024, 571.0, 150.0, 22.0 ]
				}

			}
, 			{
				"box" : 				{
					"hint" : "aaa",
					"id" : "obj-24",
					"maxclass" : "message",
					"numinlets" : 2,
					"numoutlets" : 1,
					"outlettype" : [ "" ],
					"patching_rect" : [ 804.372066617012024, 614.959044575691223, 93.0, 22.0 ],
					"style" : "redness",
					"text" : "attrui test object"
				}

			}
, 			{
				"box" : 				{
					"id" : "obj-26",
					"maxclass" : "newobj",
					"numinlets" : 1,
					"numoutlets" : 1,
					"outlettype" : [ "" ],
					"patching_rect" : [ 507.0, 363.0, 107.0, 22.0 ],
					"text" : "prepend bgfillcolor"
				}

			}
, 			{
				"box" : 				{
					"id" : "obj-20",
					"maxclass" : "comment",
					"numinlets" : 1,
					"numoutlets" : 0,
					"patching_rect" : [ 682.0, 182.0, 47.0, 20.0 ],
					"text" : "preset"
				}

			}
, 			{
				"box" : 				{
					"id" : "obj-17",
					"maxclass" : "comment",
					"numinlets" : 1,
					"numoutlets" : 0,
					"patching_rect" : [ 664.5, 264.0, 57.0, 20.0 ],
					"text" : "swatch"
				}

			}
, 			{
				"box" : 				{
					"id" : "obj-12",
					"maxclass" : "newobj",
					"numinlets" : 2,
					"numoutlets" : 1,
					"outlettype" : [ "int" ],
					"patching_rect" : [ 629.0, 171.0, 29.5, 22.0 ],
					"text" : "+ 1"
				}

			}
, 			{
				"box" : 				{
					"id" : "obj-10",
					"maxclass" : "preset",
					"numinlets" : 1,
					"numoutlets" : 4,
					"outlettype" : [ "preset", "int", "preset", "int" ],
					"patching_rect" : [ 629.0, 206.923076152801514, 100.0, 40.0 ],
					"preset_data" : [ 						{
							"number" : 1,
							"data" : [ 11, "obj-1", "swatch", "list", 0.0, 0.205788582912646, 0.693182595074177, 1.0, 0.6171875, 1.0, 0.346591297537088 ]
						}
, 						{
							"number" : 2,
							"data" : [ 11, "obj-1", "swatch", "list", 0.880682595074177, 0.330255973152816, 0.0, 1.0, 0.0625, 1.0, 0.440341297537088 ]
						}
, 						{
							"number" : 3,
							"data" : [ 11, "obj-1", "swatch", "list", 0.005682595074177, 1.0, 0.53391371644102, 1.0, 0.421875, 1.0, 0.502841297537088 ]
						}
, 						{
							"number" : 4,
							"data" : [ 11, "obj-1", "swatch", "list", 0.818182595074177, 0.0, 0.153409236576408, 1.0, 0.96875, 1.0, 0.409091297537088 ]
						}
 ]
				}

			}
, 			{
				"box" : 				{
					"id" : "obj-8",
					"maxclass" : "newobj",
					"numinlets" : 1,
					"numoutlets" : 1,
					"outlettype" : [ "" ],
					"patching_rect" : [ 613.0, 491.0, 107.0, 22.0 ],
					"text" : "prepend bgfillcolor"
				}

			}
, 			{
				"box" : 				{
					"id" : "obj-6",
					"maxclass" : "newobj",
					"numinlets" : 1,
					"numoutlets" : 1,
					"outlettype" : [ "" ],
					"patching_rect" : [ 507.0, 491.0, 95.0, 22.0 ],
					"text" : "prepend bgcolor"
				}

			}
, 			{
				"box" : 				{
					"bgcolor" : [ 0.376470588235294, 0.384313725490196, 0.4, 1.0 ],
					"bgcolor2" : [ 0.376470588235294, 0.384313725490196, 0.4, 1.0 ],
					"bgfillcolor_angle" : 270.0,
					"bgfillcolor_autogradient" : 0.0,
					"bgfillcolor_color" : [ 0.880682595074177, 0.330255973152816, 0.0, 1.0 ],
					"bgfillcolor_color1" : [ 0.376470588235294, 0.384313725490196, 0.4, 1.0 ],
					"bgfillcolor_color2" : [ 0.290196078431373, 0.309803921568627, 0.301960784313725, 1.0 ],
					"bgfillcolor_proportion" : 0.39,
					"bgfillcolor_pt1" : [ 0.504951, 0.278261 ],
					"bgfillcolor_pt2" : [ 0.5, 0.95 ],
					"bgfillcolor_type" : "color",
					"gradient" : 1,
					"id" : "obj-4",
					"maxclass" : "message",
					"numinlets" : 2,
					"numoutlets" : 1,
					"outlettype" : [ "" ],
					"patching_rect" : [ 507.0, 412.0, 141.0, 22.0 ],
					"style" : "velvet",
					"text" : "0.880683 0.330256 0. 1."
				}

			}
, 			{
				"box" : 				{
					"id" : "obj-1",
					"maxclass" : "swatch",
					"numinlets" : 3,
					"numoutlets" : 2,
					"outlettype" : [ "", "float" ],
					"parameter_enable" : 0,
					"patching_rect" : [ 629.0, 287.090921521186829, 128.0, 32.0 ],
					"saturation" : 1.0
				}

			}
, 			{
				"box" : 				{
					"id" : "obj-100",
					"maxclass" : "message",
					"numinlets" : 2,
					"numoutlets" : 1,
					"outlettype" : [ "" ],
					"patching_rect" : [ 316.875, 472.482786655426025, 29.5, 22.0 ],
					"text" : "0"
				}

			}
, 			{
				"box" : 				{
					"id" : "obj-74",
					"maxclass" : "comment",
					"numinlets" : 1,
					"numoutlets" : 0,
					"patching_rect" : [ 411.5, 407.0, 53.137928366661072, 20.0 ],
					"text" : "Trigger"
				}

			}
, 			{
				"box" : 				{
					"id" : "obj-73",
					"maxclass" : "comment",
					"numinlets" : 1,
					"numoutlets" : 0,
					"patching_rect" : [ 379.625, 293.090921521186829, 56.75, 20.0 ],
					"text" : "Select"
				}

			}
, 			{
				"box" : 				{
					"id" : "obj-72",
					"maxclass" : "comment",
					"numinlets" : 1,
					"numoutlets" : 0,
					"patching_rect" : [ 373.75, 94.090921521186829, 59.75, 20.0 ],
					"text" : "Umenu"
				}

			}
, 			{
				"box" : 				{
					"bgcolor" : [ 0.376470588235294, 0.384313725490196, 0.4, 1.0 ],
					"bgcolor2" : [ 0.376470588235294, 0.384313725490196, 0.4, 1.0 ],
					"bgfillcolor_angle" : 270.0,
					"bgfillcolor_autogradient" : 0.0,
					"bgfillcolor_color" : [ 0.818182595074177, 0.651989255449735, 0.0, 1.0 ],
					"bgfillcolor_color1" : [ 0.376470588235294, 0.384313725490196, 0.4, 1.0 ],
					"bgfillcolor_color2" : [ 0.290196078431373, 0.309803921568627, 0.301960784313725, 1.0 ],
					"bgfillcolor_proportion" : 0.39,
					"bgfillcolor_type" : "color",
					"gradient" : 1,
					"id" : "obj-70",
					"maxclass" : "message",
					"numinlets" : 2,
					"numoutlets" : 1,
					"outlettype" : [ "" ],
					"patching_rect" : [ 263.625, 618.242424309253693, 29.5, 22.0 ],
					"text" : "0"
				}

			}
, 			{
				"box" : 				{
					"id" : "obj-68",
					"maxclass" : "newobj",
					"numinlets" : 1,
					"numoutlets" : 2,
					"outlettype" : [ "int", "bang" ],
					"patching_rect" : [ 343.5, 407.0, 59.0, 22.0 ],
					"text" : "trigger i b"
				}

			}
, 			{
				"box" : 				{
					"id" : "obj-67",
					"maxclass" : "message",
					"numinlets" : 2,
					"numoutlets" : 1,
					"outlettype" : [ "" ],
					"patching_rect" : [ 465.75, 363.0, 29.5, 22.0 ],
					"text" : "720"
				}

			}
, 			{
				"box" : 				{
					"id" : "obj-66",
					"maxclass" : "message",
					"numinlets" : 2,
					"numoutlets" : 1,
					"outlettype" : [ "" ],
					"patching_rect" : [ 434.25, 363.0, 29.5, 22.0 ],
					"text" : "360"
				}

			}
, 			{
				"box" : 				{
					"id" : "obj-65",
					"maxclass" : "message",
					"numinlets" : 2,
					"numoutlets" : 1,
					"outlettype" : [ "" ],
					"patching_rect" : [ 404.0, 363.0, 29.5, 22.0 ],
					"text" : "180"
				}

			}
, 			{
				"box" : 				{
					"id" : "obj-64",
					"maxclass" : "message",
					"numinlets" : 2,
					"numoutlets" : 1,
					"outlettype" : [ "" ],
					"patching_rect" : [ 373.75, 363.0, 29.5, 22.0 ],
					"text" : "30"
				}

			}
, 			{
				"box" : 				{
					"id" : "obj-63",
					"maxclass" : "message",
					"numinlets" : 2,
					"numoutlets" : 1,
					"outlettype" : [ "" ],
					"patching_rect" : [ 343.5, 363.0, 29.5, 22.0 ],
					"text" : "10"
				}

			}
, 			{
				"box" : 				{
					"id" : "obj-61",
					"maxclass" : "newobj",
					"numinlets" : 6,
					"numoutlets" : 6,
					"outlettype" : [ "bang", "bang", "bang", "bang", "bang", "" ],
					"patching_rect" : [ 343.5, 317.923076152801514, 90.0, 22.0 ],
					"text" : "select 0 1 2 3 4"
				}

			}
, 			{
				"box" : 				{
					"id" : "obj-56",
					"items" : [ 10, "seconds", ",", 30, "seconds", ",", "perfect", "cup", "of", "tea", ",", "soft-boiled", "egg", ",", "hard-boiled", "egg" ],
					"maxclass" : "umenu",
					"numinlets" : 1,
					"numoutlets" : 3,
					"outlettype" : [ "int", "", "" ],
					"parameter_enable" : 0,
					"patching_rect" : [ 343.5, 116.090921521186829, 114.0, 22.0 ],
					"presentation" : 1,
					"presentation_rect" : [ 51.0, 64.090921521186829, 147.0, 22.0 ]
				}

			}
, 			{
				"box" : 				{
					"id" : "obj-53",
					"maxclass" : "comment",
					"numinlets" : 1,
					"numoutlets" : 0,
					"patching_rect" : [ 343.5, 730.0, 74.5, 20.0 ],
					"text" : "Count timer"
				}

			}
, 			{
				"box" : 				{
					"bgcolor" : [ 0.818182595074177, 0.651989255449735, 0.0, 1.0 ],
					"id" : "obj-51",
					"maxclass" : "number",
					"numinlets" : 1,
					"numoutlets" : 2,
					"outlettype" : [ "", "bang" ],
					"parameter_enable" : 0,
					"patching_rect" : [ 343.5, 633.89759749174118, 50.0, 22.0 ]
				}

			}
, 			{
				"box" : 				{
					"id" : "obj-35",
					"maxclass" : "number",
					"numinlets" : 1,
					"numoutlets" : 2,
					"outlettype" : [ "", "bang" ],
					"parameter_enable" : 0,
					"patching_rect" : [ 343.5, 706.0, 50.0, 22.0 ],
					"style" : "multi001"
				}

			}
, 			{
				"box" : 				{
					"id" : "obj-33",
					"maxclass" : "number",
					"numinlets" : 1,
					"numoutlets" : 2,
					"outlettype" : [ "", "bang" ],
					"parameter_enable" : 0,
					"patching_rect" : [ 237.0, 706.0, 49.242424309253693, 22.0 ],
					"style" : "multi001"
				}

			}
, 			{
				"box" : 				{
					"bgcolor" : [ 0.156862745098039, 0.156862745098039, 0.196078431372549, 0.0 ],
					"id" : "obj-31",
					"maxclass" : "button",
					"numinlets" : 1,
					"numoutlets" : 1,
					"outlettype" : [ "bang" ],
					"parameter_enable" : 0,
					"patching_rect" : [ 308.0, 706.0, 24.0, 24.0 ],
					"style" : "multi001"
				}

			}
, 			{
				"box" : 				{
					"id" : "obj-30",
					"maxclass" : "newobj",
					"numinlets" : 5,
					"numoutlets" : 4,
					"outlettype" : [ "int", "", "", "int" ],
					"patching_rect" : [ 237.0, 668.363635361194611, 125.5, 22.0 ],
					"style" : "multi001",
					"text" : "counter 1 10"
				}

			}
, 			{
				"box" : 				{
					"bgcolor" : [ 0.156862745098039, 0.156862745098039, 0.196078431372549, 0.0 ],
					"id" : "obj-29",
					"maxclass" : "button",
					"numinlets" : 1,
					"numoutlets" : 1,
					"outlettype" : [ "bang" ],
					"outlinecolor" : [ 0.305882352941176, 0.254901960784314, 0.27843137254902, 0.0 ],
					"parameter_enable" : 0,
					"patching_rect" : [ 237.0, 618.242424309253693, 24.0, 24.0 ],
					"presentation" : 1,
					"presentation_rect" : [ 174.0, 95.0, 24.0, 24.0 ],
					"style" : "multi001"
				}

			}
, 			{
				"box" : 				{
					"id" : "obj-27",
					"maxclass" : "toggle",
					"numinlets" : 1,
					"numoutlets" : 1,
					"outlettype" : [ "int" ],
					"parameter_enable" : 0,
					"patching_rect" : [ 237.0, 539.060603320598602, 24.0, 24.0 ],
					"style" : "multi001"
				}

			}
, 			{
				"box" : 				{
					"id" : "obj-25",
					"maxclass" : "newobj",
					"numinlets" : 2,
					"numoutlets" : 1,
					"outlettype" : [ "bang" ],
					"patching_rect" : [ 237.0, 580.0, 69.0, 22.0 ],
					"style" : "multi001",
					"text" : "metro 1000"
				}

			}
, 			{
				"box" : 				{
					"bgcolor" : [ 0.2, 0.2, 0.2, 0.0 ],
					"blinktime" : 250,
					"id" : "obj-36",
					"maxclass" : "led",
					"numinlets" : 1,
					"numoutlets" : 1,
					"offcolor" : [ 0.349019607843137, 0.349019607843137, 0.349019607843137, 1.0 ],
					"outlettype" : [ "int" ],
					"parameter_enable" : 0,
					"patching_rect" : [ 308.0, 826.0, 24.0, 24.0 ],
					"presentation" : 1,
					"presentation_rect" : [ 210.0, 95.0, 24.0, 24.0 ]
				}

			}
, 			{
				"box" : 				{
					"angle" : 270.0,
					"bgcolor" : [ 0.880682595074177, 0.330255973152816, 0.0, 1.0 ],
					"id" : "obj-11",
					"maxclass" : "panel",
					"mode" : 0,
					"numinlets" : 1,
					"numoutlets" : 0,
					"patching_rect" : [ 739.232535600662231, 395.0, 128.0, 128.0 ],
					"presentation" : 1,
					"presentation_rect" : [ 44.0, 28.0, 198.0, 96.0 ],
					"proportion" : 0.39
				}

			}
 ],
		"lines" : [ 			{
				"patchline" : 				{
					"destination" : [ "obj-16", 0 ],
					"midpoints" : [ 638.5, 348.0, 661.5, 348.0 ],
					"order" : 0,
					"source" : [ "obj-1", 0 ]
				}

			}
, 			{
				"patchline" : 				{
					"destination" : [ "obj-26", 0 ],
					"midpoints" : [ 638.5, 350.0, 516.5, 350.0 ],
					"order" : 2,
					"source" : [ "obj-1", 0 ]
				}

			}
, 			{
				"patchline" : 				{
					"destination" : [ "obj-4", 1 ],
					"order" : 1,
					"source" : [ "obj-1", 0 ]
				}

			}
, 			{
				"patchline" : 				{
					"destination" : [ "obj-1", 0 ],
					"source" : [ "obj-10", 0 ]
				}

			}
, 			{
				"patchline" : 				{
					"destination" : [ "obj-27", 0 ],
					"midpoints" : [ 326.375, 506.636366844177246, 246.333334803581238, 506.636366844177246, 246.333334803581238, 537.0, 246.5, 537.0 ],
					"order" : 1,
					"source" : [ "obj-100", 0 ]
				}

			}
, 			{
				"patchline" : 				{
					"destination" : [ "obj-30", 3 ],
					"order" : 0,
					"source" : [ "obj-100", 0 ]
				}

			}
, 			{
				"patchline" : 				{
					"destination" : [ "obj-10", 0 ],
					"source" : [ "obj-12", 0 ]
				}

			}
, 			{
				"patchline" : 				{
					"destination" : [ "obj-11", 0 ],
					"midpoints" : [ 661.5, 389.0, 748.732535600662231, 389.0 ],
					"source" : [ "obj-16", 0 ]
				}

			}
, 			{
				"patchline" : 				{
					"destination" : [ "obj-29", 0 ],
					"source" : [ "obj-25", 0 ]
				}

			}
, 			{
				"patchline" : 				{
					"destination" : [ "obj-4", 0 ],
					"source" : [ "obj-26", 0 ]
				}

			}
, 			{
				"patchline" : 				{
					"destination" : [ "obj-25", 0 ],
					"source" : [ "obj-27", 0 ]
				}

			}
, 			{
				"patchline" : 				{
					"destination" : [ "obj-30", 0 ],
					"source" : [ "obj-29", 0 ]
				}

			}
, 			{
				"patchline" : 				{
					"destination" : [ "obj-14", 0 ],
					"source" : [ "obj-3", 0 ]
				}

			}
, 			{
				"patchline" : 				{
					"destination" : [ "obj-31", 0 ],
					"source" : [ "obj-30", 2 ]
				}

			}
, 			{
				"patchline" : 				{
					"destination" : [ "obj-33", 0 ],
					"source" : [ "obj-30", 0 ]
				}

			}
, 			{
				"patchline" : 				{
					"destination" : [ "obj-35", 0 ],
					"source" : [ "obj-30", 3 ]
				}

			}
, 			{
				"patchline" : 				{
					"destination" : [ "obj-100", 0 ],
					"midpoints" : [ 317.5, 766.0, 427.0, 766.0, 427.0, 459.312373757362366, 326.375, 459.312373757362366 ],
					"order" : 0,
					"source" : [ "obj-31", 0 ]
				}

			}
, 			{
				"patchline" : 				{
					"destination" : [ "obj-41", 0 ],
					"order" : 1,
					"source" : [ "obj-31", 0 ]
				}

			}
, 			{
				"patchline" : 				{
					"destination" : [ "obj-43", 0 ],
					"midpoints" : [ 317.5, 771.0, 162.011587560176849, 771.0 ],
					"order" : 2,
					"source" : [ "obj-31", 0 ]
				}

			}
, 			{
				"patchline" : 				{
					"destination" : [ "obj-24", 0 ],
					"source" : [ "obj-34", 0 ]
				}

			}
, 			{
				"patchline" : 				{
					"destination" : [ "obj-24", 0 ],
					"midpoints" : [ 989.453455686569214, 603.558139264583588, 966.0, 603.558139264583588, 966.0, 603.93023270368576, 813.872066617012024, 603.93023270368576 ],
					"order" : 1,
					"source" : [ "obj-37", 0 ]
				}

			}
, 			{
				"patchline" : 				{
					"destination" : [ "obj-42", 0 ],
					"order" : 0,
					"source" : [ "obj-37", 0 ]
				}

			}
, 			{
				"patchline" : 				{
					"destination" : [ "obj-50", 0 ],
					"source" : [ "obj-38", 0 ]
				}

			}
, 			{
				"patchline" : 				{
					"destination" : [ "obj-50", 0 ],
					"midpoints" : [ 516.5, 477.0, 429.0, 477.0, 429.0, 858.0, 107.25, 858.0 ],
					"order" : 2,
					"source" : [ "obj-4", 0 ]
				}

			}
, 			{
				"patchline" : 				{
					"destination" : [ "obj-6", 0 ],
					"order" : 1,
					"source" : [ "obj-4", 0 ]
				}

			}
, 			{
				"patchline" : 				{
					"destination" : [ "obj-8", 0 ],
					"midpoints" : [ 516.5, 477.0, 622.5, 477.0 ],
					"order" : 0,
					"source" : [ "obj-4", 0 ]
				}

			}
, 			{
				"patchline" : 				{
					"destination" : [ "obj-36", 0 ],
					"source" : [ "obj-41", 0 ]
				}

			}
, 			{
				"patchline" : 				{
					"destination" : [ "obj-50", 1 ],
					"midpoints" : [ 162.011587560176849, 858.0, 138.25, 858.0 ],
					"source" : [ "obj-43", 0 ]
				}

			}
, 			{
				"patchline" : 				{
					"destination" : [ "obj-36", 0 ],
					"midpoints" : [ 353.0, 815.0, 317.5, 815.0 ],
					"source" : [ "obj-46", 0 ]
				}

			}
, 			{
				"patchline" : 				{
					"destination" : [ "obj-27", 0 ],
					"midpoints" : [ 172.261587560176849, 524.0, 246.5, 524.0 ],
					"order" : 0,
					"source" : [ "obj-48", 0 ]
				}

			}
, 			{
				"patchline" : 				{
					"destination" : [ "obj-38", 0 ],
					"midpoints" : [ 172.261587560176849, 693.0, 107.5, 693.0 ],
					"order" : 1,
					"source" : [ "obj-48", 0 ]
				}

			}
, 			{
				"patchline" : 				{
					"destination" : [ "obj-56", 0 ],
					"midpoints" : [ 302.5, 102.0, 353.0, 102.0 ],
					"source" : [ "obj-5", 0 ]
				}

			}
, 			{
				"patchline" : 				{
					"destination" : [ "obj-30", 4 ],
					"midpoints" : [ 353.0, 653.0, 353.0, 653.0 ],
					"source" : [ "obj-51", 0 ]
				}

			}
, 			{
				"patchline" : 				{
					"destination" : [ "obj-48", 0 ],
					"source" : [ "obj-54", 0 ]
				}

			}
, 			{
				"patchline" : 				{
					"destination" : [ "obj-12", 0 ],
					"midpoints" : [ 353.0, 154.0, 638.5, 154.0 ],
					"order" : 0,
					"source" : [ "obj-56", 0 ]
				}

			}
, 			{
				"patchline" : 				{
					"destination" : [ "obj-23", 0 ],
					"midpoints" : [ 353.0, 156.0, 383.25, 156.0 ],
					"order" : 1,
					"source" : [ "obj-56", 0 ]
				}

			}
, 			{
				"patchline" : 				{
					"destination" : [ "obj-5", 1 ],
					"midpoints" : [ 353.0, 141.0, 227.0, 141.0, 227.0, 21.0, 313.0, 21.0 ],
					"order" : 3,
					"source" : [ "obj-56", 0 ]
				}

			}
, 			{
				"patchline" : 				{
					"destination" : [ "obj-61", 0 ],
					"midpoints" : [ 353.0, 305.0, 353.0, 305.0 ],
					"order" : 2,
					"source" : [ "obj-56", 0 ]
				}

			}
, 			{
				"patchline" : 				{
					"destination" : [ "obj-46", 0 ],
					"midpoints" : [ 107.5, 770.0, 353.0, 770.0 ],
					"source" : [ "obj-59", 0 ]
				}

			}
, 			{
				"patchline" : 				{
					"destination" : [ "obj-51", 0 ],
					"midpoints" : [ 516.5, 599.823528528213501, 353.0, 599.823528528213501 ],
					"source" : [ "obj-6", 0 ]
				}

			}
, 			{
				"patchline" : 				{
					"destination" : [ "obj-63", 0 ],
					"midpoints" : [ 353.0, 351.0, 353.0, 351.0 ],
					"source" : [ "obj-61", 0 ]
				}

			}
, 			{
				"patchline" : 				{
					"destination" : [ "obj-64", 0 ],
					"midpoints" : [ 367.199999999999989, 357.0, 383.25, 357.0 ],
					"source" : [ "obj-61", 1 ]
				}

			}
, 			{
				"patchline" : 				{
					"destination" : [ "obj-65", 0 ],
					"midpoints" : [ 381.399999999999977, 357.0, 413.5, 357.0 ],
					"source" : [ "obj-61", 2 ]
				}

			}
, 			{
				"patchline" : 				{
					"destination" : [ "obj-66", 0 ],
					"midpoints" : [ 395.600000000000023, 357.0, 443.75, 357.0 ],
					"source" : [ "obj-61", 3 ]
				}

			}
, 			{
				"patchline" : 				{
					"destination" : [ "obj-67", 0 ],
					"midpoints" : [ 409.800000000000011, 357.0, 475.25, 357.0 ],
					"source" : [ "obj-61", 4 ]
				}

			}
, 			{
				"patchline" : 				{
					"destination" : [ "obj-68", 0 ],
					"midpoints" : [ 353.0, 395.0, 353.0, 395.0 ],
					"source" : [ "obj-63", 0 ]
				}

			}
, 			{
				"patchline" : 				{
					"destination" : [ "obj-68", 0 ],
					"midpoints" : [ 383.25, 395.0, 353.0, 395.0 ],
					"source" : [ "obj-64", 0 ]
				}

			}
, 			{
				"patchline" : 				{
					"destination" : [ "obj-68", 0 ],
					"midpoints" : [ 413.5, 394.0, 353.0, 394.0 ],
					"source" : [ "obj-65", 0 ]
				}

			}
, 			{
				"patchline" : 				{
					"destination" : [ "obj-68", 0 ],
					"midpoints" : [ 443.75, 394.0, 353.0, 394.0 ],
					"source" : [ "obj-66", 0 ]
				}

			}
, 			{
				"patchline" : 				{
					"destination" : [ "obj-68", 0 ],
					"midpoints" : [ 475.25, 394.0, 353.0, 394.0 ],
					"source" : [ "obj-67", 0 ]
				}

			}
, 			{
				"patchline" : 				{
					"destination" : [ "obj-100", 0 ],
					"midpoints" : [ 393.0, 450.176470220088959, 326.375, 450.176470220088959 ],
					"source" : [ "obj-68", 1 ]
				}

			}
, 			{
				"patchline" : 				{
					"destination" : [ "obj-51", 0 ],
					"source" : [ "obj-68", 0 ]
				}

			}
, 			{
				"patchline" : 				{
					"destination" : [ "obj-30", 1 ],
					"source" : [ "obj-70", 0 ]
				}

			}
, 			{
				"patchline" : 				{
					"destination" : [ "obj-70", 0 ],
					"midpoints" : [ 622.5, 609.882352769374847, 273.125, 609.882352769374847 ],
					"source" : [ "obj-8", 0 ]
				}

			}
, 			{
				"patchline" : 				{
					"destination" : [ "obj-5", 0 ],
					"midpoints" : [ 252.0, 69.0, 302.5, 69.0 ],
					"source" : [ "obj-9", 0 ]
				}

			}
 ],
		"dependency_cache" : [  ],
		"autosave" : 0,
		"styles" : [ 			{
				"name" : "multi001",
				"parentstyle" : "velvet",
				"multi" : 1
			}
 ],
		"bgcolor" : [ 0.625, 0.982758091995493, 1.0, 1.0 ]
	}

}
