{
	"patcher" : 	{
		"fileversion" : 1,
		"appversion" : 		{
			"major" : 8,
			"minor" : 0,
			"revision" : 4,
			"architecture" : "x64",
			"modernui" : 1
		}
,
		"classnamespace" : "box",
		"rect" : [ -1324.0, -71.0, 1075.0, 1087.0 ],
		"bglocked" : 0,
		"openinpresentation" : 0,
		"default_fontsize" : 12.0,
		"default_fontface" : 0,
		"default_fontname" : "Arial",
		"gridonopen" : 1,
		"gridsize" : [ 15.0, 15.0 ],
		"gridsnaponopen" : 1,
		"objectsnaponopen" : 1,
		"statusbarvisible" : 2,
		"toolbarvisible" : 1,
		"lefttoolbarpinned" : 0,
		"toptoolbarpinned" : 0,
		"righttoolbarpinned" : 0,
		"bottomtoolbarpinned" : 0,
		"toolbars_unpinned_last_save" : 0,
		"tallnewobj" : 0,
		"boxanimatetime" : 200,
		"enablehscroll" : 1,
		"enablevscroll" : 1,
		"devicewidth" : 0.0,
		"description" : "",
		"digest" : "",
		"tags" : "",
		"style" : "",
		"subpatcher_template" : "",
		"boxes" : [ 			{
				"box" : 				{
					"id" : "obj-26",
					"maxclass" : "newobj",
					"numinlets" : 1,
					"numoutlets" : 1,
					"outlettype" : [ "" ],
					"patching_rect" : [ 507.0, 664.0, 107.0, 22.0 ],
					"text" : "prepend bgfillcolor"
				}

			}
, 			{
				"box" : 				{
					"id" : "obj-20",
					"maxclass" : "comment",
					"numinlets" : 1,
					"numoutlets" : 0,
					"patching_rect" : [ 682.0, 483.0, 47.0, 20.0 ],
					"text" : "preset"
				}

			}
, 			{
				"box" : 				{
					"id" : "obj-17",
					"maxclass" : "comment",
					"numinlets" : 1,
					"numoutlets" : 0,
					"patching_rect" : [ 664.5, 565.0, 57.0, 20.0 ],
					"text" : "swatch"
				}

			}
, 			{
				"box" : 				{
					"id" : "obj-12",
					"maxclass" : "newobj",
					"numinlets" : 2,
					"numoutlets" : 1,
					"outlettype" : [ "int" ],
					"patching_rect" : [ 629.0, 472.0, 29.5, 22.0 ],
					"text" : "+ 1"
				}

			}
, 			{
				"box" : 				{
					"id" : "obj-10",
					"maxclass" : "preset",
					"numinlets" : 1,
					"numoutlets" : 4,
					"outlettype" : [ "preset", "int", "preset", "int" ],
					"patching_rect" : [ 629.0, 507.923076152801514, 100.0, 40.0 ],
					"preset_data" : [ 						{
							"number" : 1,
							"data" : [ 11, "obj-1", "swatch", "list", 0.0, 0.205788582912646, 0.693182595074177, 1.0, 0.6171875, 1.0, 0.346591297537088 ]
						}
, 						{
							"number" : 2,
							"data" : [ 11, "obj-1", "swatch", "list", 0.880682595074177, 0.330255973152816, 0.0, 1.0, 0.0625, 1.0, 0.440341297537088 ]
						}
, 						{
							"number" : 3,
							"data" : [ 11, "obj-1", "swatch", "list", 0.005682595074177, 1.0, 0.53391371644102, 1.0, 0.421875, 1.0, 0.502841297537088 ]
						}
, 						{
							"number" : 4,
							"data" : [ 11, "obj-1", "swatch", "list", 0.818182595074177, 0.0, 0.153409236576408, 1.0, 0.96875, 1.0, 0.409091297537088 ]
						}
 ]
				}

			}
, 			{
				"box" : 				{
					"id" : "obj-8",
					"maxclass" : "newobj",
					"numinlets" : 1,
					"numoutlets" : 1,
					"outlettype" : [ "" ],
					"patching_rect" : [ 613.0, 792.0, 107.0, 22.0 ],
					"text" : "prepend bgfillcolor"
				}

			}
, 			{
				"box" : 				{
					"id" : "obj-6",
					"maxclass" : "newobj",
					"numinlets" : 1,
					"numoutlets" : 1,
					"outlettype" : [ "" ],
					"patching_rect" : [ 507.0, 792.0, 95.0, 22.0 ],
					"text" : "prepend bgcolor"
				}

			}
, 			{
				"box" : 				{
					"bgcolor" : [ 0.376470588235294, 0.384313725490196, 0.4, 1.0 ],
					"bgcolor2" : [ 0.376470588235294, 0.384313725490196, 0.4, 1.0 ],
					"bgfillcolor_angle" : 270.0,
					"bgfillcolor_color" : [ 0.0, 0.205788582912646, 0.693182595074177, 1.0 ],
					"bgfillcolor_color1" : [ 0.376470588235294, 0.384313725490196, 0.4, 1.0 ],
					"bgfillcolor_color2" : [ 0.290196078431373, 0.309803921568627, 0.301960784313725, 1.0 ],
					"bgfillcolor_proportion" : 0.39,
					"bgfillcolor_type" : "color",
					"gradient" : 1,
					"id" : "obj-4",
					"maxclass" : "message",
					"numinlets" : 2,
					"numoutlets" : 1,
					"outlettype" : [ "" ],
					"patching_rect" : [ 507.0, 713.0, 141.0, 22.0 ],
					"text" : "0. 0.205789 0.693183 1."
				}

			}
, 			{
				"box" : 				{
					"id" : "obj-1",
					"maxclass" : "swatch",
					"numinlets" : 3,
					"numoutlets" : 2,
					"outlettype" : [ "", "float" ],
					"parameter_enable" : 0,
					"patching_rect" : [ 629.0, 588.090921521186829, 128.0, 32.0 ],
					"saturation" : 1.0
				}

			}
, 			{
				"box" : 				{
					"id" : "obj-100",
					"maxclass" : "message",
					"numinlets" : 2,
					"numoutlets" : 1,
					"outlettype" : [ "" ],
					"patching_rect" : [ 316.875, 773.482786655426025, 29.5, 22.0 ],
					"text" : "0"
				}

			}
, 			{
				"box" : 				{
					"id" : "obj-74",
					"maxclass" : "comment",
					"numinlets" : 1,
					"numoutlets" : 0,
					"patching_rect" : [ 411.5, 708.0, 53.137928366661072, 20.0 ],
					"text" : "Trigger"
				}

			}
, 			{
				"box" : 				{
					"id" : "obj-73",
					"maxclass" : "comment",
					"numinlets" : 1,
					"numoutlets" : 0,
					"patching_rect" : [ 379.625, 594.090921521186829, 56.75, 20.0 ],
					"text" : "Select"
				}

			}
, 			{
				"box" : 				{
					"id" : "obj-72",
					"maxclass" : "comment",
					"numinlets" : 1,
					"numoutlets" : 0,
					"patching_rect" : [ 343.5, 395.090921521186829, 104.0, 20.0 ],
					"text" : "Umenu"
				}

			}
, 			{
				"box" : 				{
					"bgcolor" : [ 0.376470588235294, 0.384313725490196, 0.4, 1.0 ],
					"bgcolor2" : [ 0.376470588235294, 0.384313725490196, 0.4, 1.0 ],
					"bgfillcolor_angle" : 270.0,
					"bgfillcolor_color" : [ 0.127841297537088, 0.255682595074177, 0.0, 1.0 ],
					"bgfillcolor_color1" : [ 0.376470588235294, 0.384313725490196, 0.4, 1.0 ],
					"bgfillcolor_color2" : [ 0.290196078431373, 0.309803921568627, 0.301960784313725, 1.0 ],
					"bgfillcolor_proportion" : 0.39,
					"bgfillcolor_type" : "color",
					"gradient" : 1,
					"id" : "obj-70",
					"maxclass" : "message",
					"numinlets" : 2,
					"numoutlets" : 1,
					"outlettype" : [ "" ],
					"patching_rect" : [ 263.625, 919.242424309253693, 29.5, 22.0 ],
					"text" : "0"
				}

			}
, 			{
				"box" : 				{
					"id" : "obj-68",
					"maxclass" : "newobj",
					"numinlets" : 1,
					"numoutlets" : 2,
					"outlettype" : [ "int", "bang" ],
					"patching_rect" : [ 343.5, 708.0, 59.0, 22.0 ],
					"text" : "trigger i b"
				}

			}
, 			{
				"box" : 				{
					"id" : "obj-67",
					"maxclass" : "message",
					"numinlets" : 2,
					"numoutlets" : 1,
					"outlettype" : [ "" ],
					"patching_rect" : [ 465.75, 664.0, 29.5, 22.0 ],
					"text" : "720"
				}

			}
, 			{
				"box" : 				{
					"id" : "obj-66",
					"maxclass" : "message",
					"numinlets" : 2,
					"numoutlets" : 1,
					"outlettype" : [ "" ],
					"patching_rect" : [ 434.25, 664.0, 29.5, 22.0 ],
					"text" : "360"
				}

			}
, 			{
				"box" : 				{
					"id" : "obj-65",
					"maxclass" : "message",
					"numinlets" : 2,
					"numoutlets" : 1,
					"outlettype" : [ "" ],
					"patching_rect" : [ 404.0, 664.0, 29.5, 22.0 ],
					"text" : "180"
				}

			}
, 			{
				"box" : 				{
					"id" : "obj-64",
					"maxclass" : "message",
					"numinlets" : 2,
					"numoutlets" : 1,
					"outlettype" : [ "" ],
					"patching_rect" : [ 373.75, 664.0, 29.5, 22.0 ],
					"text" : "30"
				}

			}
, 			{
				"box" : 				{
					"id" : "obj-63",
					"maxclass" : "message",
					"numinlets" : 2,
					"numoutlets" : 1,
					"outlettype" : [ "" ],
					"patching_rect" : [ 343.5, 664.0, 29.5, 22.0 ],
					"text" : "10"
				}

			}
, 			{
				"box" : 				{
					"id" : "obj-61",
					"maxclass" : "newobj",
					"numinlets" : 6,
					"numoutlets" : 6,
					"outlettype" : [ "bang", "bang", "bang", "bang", "bang", "" ],
					"patching_rect" : [ 343.5, 618.923076152801514, 90.0, 22.0 ],
					"text" : "select 0 1 2 3 4"
				}

			}
, 			{
				"box" : 				{
					"id" : "obj-56",
					"items" : [ 10, "seconds", ",", 30, "seconds", ",", "perfect", "cup", "of", "tea", ",", "soft-boiled", "egg", ",", "hard-boiled", "egg" ],
					"maxclass" : "umenu",
					"numinlets" : 1,
					"numoutlets" : 3,
					"outlettype" : [ "int", "", "" ],
					"parameter_enable" : 0,
					"patching_rect" : [ 343.5, 417.090921521186829, 100.0, 22.0 ]
				}

			}
, 			{
				"box" : 				{
					"id" : "obj-53",
					"maxclass" : "comment",
					"numinlets" : 1,
					"numoutlets" : 0,
					"patching_rect" : [ 343.5, 1031.0, 74.5, 20.0 ],
					"text" : "Count timer"
				}

			}
, 			{
				"box" : 				{
					"bgcolor" : [ 0.127841297537088, 0.255682595074177, 0.0, 1.0 ],
					"id" : "obj-51",
					"maxclass" : "number",
					"numinlets" : 1,
					"numoutlets" : 2,
					"outlettype" : [ "", "bang" ],
					"parameter_enable" : 0,
					"patching_rect" : [ 343.5, 934.89759749174118, 50.0, 22.0 ]
				}

			}
, 			{
				"box" : 				{
					"id" : "obj-45",
					"maxclass" : "comment",
					"numinlets" : 1,
					"numoutlets" : 0,
					"patching_rect" : [ 98.393940329551697, 765.363633155822754, 150.0, 20.0 ],
					"style" : "multi001",
					"text" : "Metronome and Counter"
				}

			}
, 			{
				"box" : 				{
					"id" : "obj-35",
					"maxclass" : "number",
					"numinlets" : 1,
					"numoutlets" : 2,
					"outlettype" : [ "", "bang" ],
					"parameter_enable" : 0,
					"patching_rect" : [ 343.5, 1007.0, 50.0, 22.0 ],
					"style" : "multi001"
				}

			}
, 			{
				"box" : 				{
					"id" : "obj-33",
					"maxclass" : "number",
					"numinlets" : 1,
					"numoutlets" : 2,
					"outlettype" : [ "", "bang" ],
					"parameter_enable" : 0,
					"patching_rect" : [ 237.0, 1007.0, 49.242424309253693, 22.0 ],
					"style" : "multi001"
				}

			}
, 			{
				"box" : 				{
					"id" : "obj-31",
					"maxclass" : "button",
					"numinlets" : 1,
					"numoutlets" : 1,
					"outlettype" : [ "bang" ],
					"parameter_enable" : 0,
					"patching_rect" : [ 308.0, 1007.0, 24.0, 24.0 ],
					"style" : "multi001"
				}

			}
, 			{
				"box" : 				{
					"id" : "obj-30",
					"maxclass" : "newobj",
					"numinlets" : 5,
					"numoutlets" : 4,
					"outlettype" : [ "int", "", "", "int" ],
					"patching_rect" : [ 237.0, 969.363635361194611, 125.5, 22.0 ],
					"style" : "multi001",
					"text" : "counter 1 10"
				}

			}
, 			{
				"box" : 				{
					"id" : "obj-29",
					"maxclass" : "button",
					"numinlets" : 1,
					"numoutlets" : 1,
					"outlettype" : [ "bang" ],
					"parameter_enable" : 0,
					"patching_rect" : [ 237.0, 919.242424309253693, 24.0, 24.0 ],
					"style" : "multi001"
				}

			}
, 			{
				"box" : 				{
					"id" : "obj-27",
					"maxclass" : "toggle",
					"numinlets" : 1,
					"numoutlets" : 1,
					"outlettype" : [ "int" ],
					"parameter_enable" : 0,
					"patching_rect" : [ 237.0, 840.060603320598602, 24.0, 24.0 ],
					"style" : "multi001"
				}

			}
, 			{
				"box" : 				{
					"id" : "obj-25",
					"maxclass" : "newobj",
					"numinlets" : 2,
					"numoutlets" : 1,
					"outlettype" : [ "bang" ],
					"patching_rect" : [ 237.0, 881.0, 69.0, 22.0 ],
					"style" : "multi001",
					"text" : "metro 1000"
				}

			}
, 			{
				"box" : 				{
					"id" : "obj-23",
					"maxclass" : "message",
					"numinlets" : 2,
					"numoutlets" : 1,
					"outlettype" : [ "" ],
					"patching_rect" : [ 461.0, 35.0, 119.0, 22.0 ],
					"text" : "How do you do dude"
				}

			}
, 			{
				"box" : 				{
					"id" : "obj-21",
					"maxclass" : "message",
					"numinlets" : 2,
					"numoutlets" : 1,
					"outlettype" : [ "" ],
					"patching_rect" : [ 371.0, 35.0, 74.0, 22.0 ],
					"text" : "Hello World!"
				}

			}
, 			{
				"box" : 				{
					"id" : "obj-18",
					"linecount" : 3,
					"maxclass" : "message",
					"numinlets" : 2,
					"numoutlets" : 1,
					"outlettype" : [ "" ],
					"patching_rect" : [ 301.0, 87.0, 57.0, 49.0 ],
					"text" : "How do you do dude"
				}

			}
, 			{
				"box" : 				{
					"id" : "obj-16",
					"maxclass" : "newobj",
					"numinlets" : 1,
					"numoutlets" : 0,
					"patching_rect" : [ 300.0, 156.0, 69.0, 22.0 ],
					"text" : "print Result"
				}

			}
, 			{
				"box" : 				{
					"id" : "obj-15",
					"maxclass" : "button",
					"numinlets" : 1,
					"numoutlets" : 1,
					"outlettype" : [ "bang" ],
					"parameter_enable" : 0,
					"patching_rect" : [ 300.0, 35.0, 24.0, 24.0 ]
				}

			}
, 			{
				"box" : 				{
					"id" : "obj-13",
					"maxclass" : "message",
					"numinlets" : 2,
					"numoutlets" : 1,
					"outlettype" : [ "" ],
					"patching_rect" : [ 156.5, 196.0, 106.0, 22.0 ],
					"text" : "parameter_enable"
				}

			}
, 			{
				"box" : 				{
					"id" : "obj-11",
					"maxclass" : "message",
					"numinlets" : 2,
					"numoutlets" : 1,
					"outlettype" : [ "" ],
					"patching_rect" : [ 35.5, 139.0, 43.0, 22.0 ],
					"text" : "Result"
				}

			}
, 			{
				"box" : 				{
					"id" : "obj-9",
					"maxclass" : "toggle",
					"numinlets" : 1,
					"numoutlets" : 1,
					"outlettype" : [ "int" ],
					"parameter_enable" : 0,
					"patching_rect" : [ 131.5, 26.0, 24.0, 24.0 ]
				}

			}
, 			{
				"box" : 				{
					"id" : "obj-7",
					"maxclass" : "button",
					"numinlets" : 1,
					"numoutlets" : 1,
					"outlettype" : [ "bang" ],
					"parameter_enable" : 0,
					"patching_rect" : [ 131.5, 139.0, 24.0, 24.0 ]
				}

			}
, 			{
				"box" : 				{
					"id" : "obj-5",
					"maxclass" : "newobj",
					"numinlets" : 2,
					"numoutlets" : 1,
					"outlettype" : [ "bang" ],
					"patching_rect" : [ 131.5, 85.5, 39.0, 22.0 ],
					"text" : "metro"
				}

			}
, 			{
				"box" : 				{
					"id" : "obj-2",
					"maxclass" : "message",
					"numinlets" : 2,
					"numoutlets" : 1,
					"outlettype" : [ "" ],
					"patching_rect" : [ 174.5, 26.0, 29.5, 22.0 ],
					"text" : "500"
				}

			}
 ],
		"lines" : [ 			{
				"patchline" : 				{
					"destination" : [ "obj-26", 0 ],
					"midpoints" : [ 638.5, 651.0, 516.5, 651.0 ],
					"order" : 1,
					"source" : [ "obj-1", 0 ]
				}

			}
, 			{
				"patchline" : 				{
					"destination" : [ "obj-4", 1 ],
					"order" : 0,
					"source" : [ "obj-1", 0 ]
				}

			}
, 			{
				"patchline" : 				{
					"destination" : [ "obj-1", 0 ],
					"source" : [ "obj-10", 0 ]
				}

			}
, 			{
				"patchline" : 				{
					"destination" : [ "obj-27", 0 ],
					"midpoints" : [ 326.375, 807.636366844177246, 246.333334803581238, 807.636366844177246, 246.333334803581238, 838.0, 246.5, 838.0 ],
					"order" : 1,
					"source" : [ "obj-100", 0 ]
				}

			}
, 			{
				"patchline" : 				{
					"destination" : [ "obj-30", 3 ],
					"order" : 0,
					"source" : [ "obj-100", 0 ]
				}

			}
, 			{
				"patchline" : 				{
					"destination" : [ "obj-10", 0 ],
					"source" : [ "obj-12", 0 ]
				}

			}
, 			{
				"patchline" : 				{
					"destination" : [ "obj-18", 0 ],
					"source" : [ "obj-15", 0 ]
				}

			}
, 			{
				"patchline" : 				{
					"destination" : [ "obj-16", 0 ],
					"source" : [ "obj-18", 0 ]
				}

			}
, 			{
				"patchline" : 				{
					"destination" : [ "obj-5", 1 ],
					"source" : [ "obj-2", 0 ]
				}

			}
, 			{
				"patchline" : 				{
					"destination" : [ "obj-18", 1 ],
					"source" : [ "obj-21", 0 ]
				}

			}
, 			{
				"patchline" : 				{
					"destination" : [ "obj-18", 1 ],
					"source" : [ "obj-23", 0 ]
				}

			}
, 			{
				"patchline" : 				{
					"destination" : [ "obj-29", 0 ],
					"source" : [ "obj-25", 0 ]
				}

			}
, 			{
				"patchline" : 				{
					"destination" : [ "obj-4", 0 ],
					"source" : [ "obj-26", 0 ]
				}

			}
, 			{
				"patchline" : 				{
					"destination" : [ "obj-25", 0 ],
					"source" : [ "obj-27", 0 ]
				}

			}
, 			{
				"patchline" : 				{
					"destination" : [ "obj-30", 0 ],
					"source" : [ "obj-29", 0 ]
				}

			}
, 			{
				"patchline" : 				{
					"destination" : [ "obj-31", 0 ],
					"source" : [ "obj-30", 2 ]
				}

			}
, 			{
				"patchline" : 				{
					"destination" : [ "obj-33", 0 ],
					"source" : [ "obj-30", 0 ]
				}

			}
, 			{
				"patchline" : 				{
					"destination" : [ "obj-35", 0 ],
					"source" : [ "obj-30", 3 ]
				}

			}
, 			{
				"patchline" : 				{
					"destination" : [ "obj-100", 0 ],
					"midpoints" : [ 317.5, 1067.0, 427.0, 1067.0, 427.0, 749.724138021469116, 326.375, 749.724138021469116 ],
					"source" : [ "obj-31", 0 ]
				}

			}
, 			{
				"patchline" : 				{
					"destination" : [ "obj-6", 0 ],
					"order" : 1,
					"source" : [ "obj-4", 0 ]
				}

			}
, 			{
				"patchline" : 				{
					"destination" : [ "obj-8", 0 ],
					"midpoints" : [ 516.5, 778.0, 622.5, 778.0 ],
					"order" : 0,
					"source" : [ "obj-4", 0 ]
				}

			}
, 			{
				"patchline" : 				{
					"destination" : [ "obj-11", 0 ],
					"order" : 1,
					"source" : [ "obj-5", 0 ]
				}

			}
, 			{
				"patchline" : 				{
					"destination" : [ "obj-7", 0 ],
					"order" : 0,
					"source" : [ "obj-5", 0 ]
				}

			}
, 			{
				"patchline" : 				{
					"destination" : [ "obj-30", 4 ],
					"midpoints" : [ 353.0, 954.0, 353.0, 954.0 ],
					"source" : [ "obj-51", 0 ]
				}

			}
, 			{
				"patchline" : 				{
					"destination" : [ "obj-12", 0 ],
					"midpoints" : [ 353.0, 455.0, 638.5, 455.0 ],
					"order" : 0,
					"source" : [ "obj-56", 0 ]
				}

			}
, 			{
				"patchline" : 				{
					"destination" : [ "obj-61", 0 ],
					"midpoints" : [ 353.0, 606.0, 353.0, 606.0 ],
					"order" : 1,
					"source" : [ "obj-56", 0 ]
				}

			}
, 			{
				"patchline" : 				{
					"destination" : [ "obj-51", 0 ],
					"midpoints" : [ 516.5, 922.0, 353.0, 922.0 ],
					"source" : [ "obj-6", 0 ]
				}

			}
, 			{
				"patchline" : 				{
					"destination" : [ "obj-63", 0 ],
					"midpoints" : [ 353.0, 652.0, 353.0, 652.0 ],
					"source" : [ "obj-61", 0 ]
				}

			}
, 			{
				"patchline" : 				{
					"destination" : [ "obj-64", 0 ],
					"midpoints" : [ 367.199999999999989, 658.0, 383.25, 658.0 ],
					"source" : [ "obj-61", 1 ]
				}

			}
, 			{
				"patchline" : 				{
					"destination" : [ "obj-65", 0 ],
					"midpoints" : [ 381.399999999999977, 658.0, 413.5, 658.0 ],
					"source" : [ "obj-61", 2 ]
				}

			}
, 			{
				"patchline" : 				{
					"destination" : [ "obj-66", 0 ],
					"midpoints" : [ 395.600000000000023, 658.0, 443.75, 658.0 ],
					"source" : [ "obj-61", 3 ]
				}

			}
, 			{
				"patchline" : 				{
					"destination" : [ "obj-67", 0 ],
					"midpoints" : [ 409.800000000000011, 658.0, 475.25, 658.0 ],
					"source" : [ "obj-61", 4 ]
				}

			}
, 			{
				"patchline" : 				{
					"destination" : [ "obj-68", 0 ],
					"midpoints" : [ 353.0, 696.0, 353.0, 696.0 ],
					"source" : [ "obj-63", 0 ]
				}

			}
, 			{
				"patchline" : 				{
					"destination" : [ "obj-68", 0 ],
					"midpoints" : [ 383.25, 696.0, 353.0, 696.0 ],
					"source" : [ "obj-64", 0 ]
				}

			}
, 			{
				"patchline" : 				{
					"destination" : [ "obj-68", 0 ],
					"midpoints" : [ 413.5, 695.0, 353.0, 695.0 ],
					"source" : [ "obj-65", 0 ]
				}

			}
, 			{
				"patchline" : 				{
					"destination" : [ "obj-68", 0 ],
					"midpoints" : [ 443.75, 695.0, 353.0, 695.0 ],
					"source" : [ "obj-66", 0 ]
				}

			}
, 			{
				"patchline" : 				{
					"destination" : [ "obj-68", 0 ],
					"midpoints" : [ 475.25, 695.0, 353.0, 695.0 ],
					"source" : [ "obj-67", 0 ]
				}

			}
, 			{
				"patchline" : 				{
					"destination" : [ "obj-100", 0 ],
					"midpoints" : [ 393.0, 760.0, 326.375, 760.0 ],
					"source" : [ "obj-68", 1 ]
				}

			}
, 			{
				"patchline" : 				{
					"destination" : [ "obj-51", 0 ],
					"source" : [ "obj-68", 0 ]
				}

			}
, 			{
				"patchline" : 				{
					"destination" : [ "obj-13", 0 ],
					"source" : [ "obj-7", 0 ]
				}

			}
, 			{
				"patchline" : 				{
					"destination" : [ "obj-30", 1 ],
					"source" : [ "obj-70", 0 ]
				}

			}
, 			{
				"patchline" : 				{
					"destination" : [ "obj-70", 0 ],
					"midpoints" : [ 622.5, 915.0, 273.125, 915.0 ],
					"source" : [ "obj-8", 0 ]
				}

			}
, 			{
				"patchline" : 				{
					"destination" : [ "obj-5", 0 ],
					"source" : [ "obj-9", 0 ]
				}

			}
 ],
		"dependency_cache" : [  ],
		"autosave" : 0,
		"styles" : [ 			{
				"name" : "multi001",
				"parentstyle" : "velvet",
				"multi" : 1
			}
 ],
		"bgcolor" : [ 0.003921568627451, 0.5, 0.5, 1.0 ]
	}

}
